# xmcd
#
# Track frame offsets:
#	150
#	25801
#	57789
#	74423
#	93136
#	114556
#	131006
#	147151
#	169034
#
# Disc length: 2711 seconds
#
# Revision: 1
# Processed by: cddbd v1.4PL0 Copyright (c) Steve Scherf et al.
# Submitted via: audiograbber 1.81.02
#
DISCID=760a9509
DTITLE=freelovebabies - written in sand
DYEAR=2002
DGENRE=Indie
TTITLE0=Pretty As A Picture
TTITLE1=Smoking In The Chokehole
TTITLE2=Goodbye Sorrow
TTITLE3=Pick It Up
TTITLE4=Green Girl
TTITLE5=Easy
TTITLE6=Dirty River
TTITLE7=Autumn Song
TTITLE8=Mermaid
EXTD=
EXTT0=
EXTT1=
EXTT2=
EXTT3=
EXTT4=
EXTT5=
EXTT6=
EXTT7=
EXTT8=
PLAYORDER=
